# xmcd
#
# Track frame offsets: 
#        183
#        10995
#        20238
#        29045
#        39710
#        50710
#        60375
#        70398
#        81975
#        93315
#        105703
#        116185
#        130505
#
# Disc length: 1865 seconds
#
# Revision: 3
# Processed by: cddbd v1.5.2PL0 Copyright (c) Steve Scherf et al.
# Submitted via: ExactAudioCopyFreeDBPlugin 1.0
#
DISCID=b907470d
DTITLE=The Beatles - Red Album (1962-1966) [remastered] CD 1_2
DYEAR=1993
DGENRE=Folk/Rock
TTITLE0=Love Me Do [mono]
TTITLE1=Please Please Me [mono]
TTITLE2=From Me To You [mono]
TTITLE3=She Loves You [mono]
TTITLE4=I Want To Hold Your Hand
TTITLE5=All My Loving
TTITLE6=Can't Buy Me Love
TTITLE7=A Hard Day's Night
TTITLE8=And I Love Her
TTITLE9=Eight Days A Week
TTITLE10=I Feel Fine
TTITLE11=Ticket To Ride
TTITLE12=Yesterday
EXTD=
EXTT0=
EXTT1=
EXTT2=
EXTT3=
EXTT4=
EXTT5=
EXTT6=
EXTT7=
EXTT8=
EXTT9=
EXTT10=
EXTT11=
EXTT12=
PLAYORDER=
